M48
; DRILL file {KiCad 7.0.8} date Mon Jun 17 16:17:50 2024
; FORMAT={-:-/ absolute / inch / decimal}
; #@! TF.CreationDate,2024-06-17T16:17:50-05:00
; #@! TF.GenerationSoftware,Kicad,Pcbnew,7.0.8
; #@! TF.FileFunction,Plated,1,2,PTH
FMAT,2
INCH
; #@! TA.AperFunction,Plated,PTH,ComponentDrill
T1C0.0362
; #@! TA.AperFunction,Plated,PTH,ComponentDrill
T2C0.0394
; #@! TA.AperFunction,Plated,PTH,ComponentDrill
T3C0.0469
; #@! TA.AperFunction,Plated,PTH,ComponentDrill
T4C0.0472
; #@! TA.AperFunction,Plated,PTH,ComponentDrill
T5C0.0598
; #@! TA.AperFunction,Plated,PTH,ComponentDrill
T6C0.0906
%
G90
G05
T1
X3.5213Y-4.3181
X3.6197Y-4.3181
X3.6984Y-4.3181
X3.7969Y-4.3181
T2
X1.324Y-2.6937
X1.324Y-4.2488
X2.013Y-2.6937
X2.013Y-4.2488
X2.7059Y-2.5102
X2.8043Y-2.5102
X3.0925Y-2.5122
X3.1909Y-2.5122
T3
X2.7071Y-4.4508
X2.8071Y-4.4508
X3.0024Y-4.4469
X3.1024Y-4.4469
X4.165Y-4.4248
X4.265Y-4.4248
T4
X3.5913Y-2.3894
X3.7413Y-2.3894
T5
X3.5736Y-2.5406
X3.7736Y-2.5406
X3.9736Y-2.5406
X4.1736Y-2.5406
T6
X3.4004Y-4.4248
X3.4012Y-2.326
X3.9177Y-4.4248
X4.3461Y-2.326
T0
M30
